<?xml version="1.0" encoding="iso-8859-1"?>
<!-- Generator: Adobe Illustrator 19.0.0, SVG Export Plug-In . SVG Version: 6.00 Build 0)  -->
<svg version="1.1" id="Capa_1" xmlns="http://www.w3.org/2000/svg" xmlns:xlink="http://www.w3.org/1999/xlink" x="0px" y="0px"
	 viewBox="0 0 512 512" style="enable-background:new 0 0 512 512;" xml:space="preserve">
<g>
	<path style="fill:#454545;" d="M25.659,279.762l15.838-5.565l40.952,116.484l-15.838,5.573L25.659,279.762z"/>
	<path style="fill:#454545;" d="M113.756,395.373l117.508-58.754l7.504,15.016L121.26,410.389L113.756,395.373z"/>
	<path style="fill:#454545;" d="M232.364,318.523L56.102,259.769c-4.407-1.444-6.799-6.194-5.355-10.593
		c0.831-2.535,2.82-4.524,5.355-5.355l176.262-58.754l5.305,15.948L85.294,251.803l152.375,50.789L232.364,318.523z"/>
	<path style="fill:#454545;" d="M25.961,223.114l50.335-109.132l15.242,7.034L41.203,230.148L25.961,223.114z"/>
	<path style="fill:#454545;" d="M113.983,76.305l109.123-50.335l7.034,15.242L121.017,91.547L113.983,76.305z"/>
	<path style="fill:#454545;" d="M273.979,41.413l6.026-15.671L389.12,67.71l-6.026,15.671L273.979,41.413z"/>
	<path style="fill:#454545;" d="M420.444,121.025l15.242-7.034l50.361,109.115l-15.242,7.034L420.444,121.025z"/>
	<path style="fill:#454545;" d="M422.878,390.295l47.767-116.501l15.528,6.371l-47.767,116.501L422.878,390.295z"/>
	<path style="fill:#454545;" d="M273.735,470.679l118.037-49.337l6.471,15.486l-118.037,49.337L273.735,470.679z"/>
	<path style="fill:#454545;" d="M106.857,436.812l6.547-15.461l116.493,49.353l-6.547,15.461L106.857,436.812z"/>
</g>
<path d="M243.41,352.525h16.787v100.721H243.41V352.525z"/>
<g>
	<path style="fill:#454545;" d="M265.543,351.954l6.102-15.637l126.422,49.345l-6.102,15.637L265.543,351.954z"/>
	<path style="fill:#454545;" d="M273.013,168.876l109.115-58.762l7.957,14.781L280.97,183.657L273.013,168.876z"/>
	<path style="fill:#454545;" d="M113.11,116.258l8.796-14.294l109.115,67.148l-8.796,14.294L113.11,116.258z"/>
</g>
<path d="M243.41,58.754h16.787v92.328H243.41V58.754z"/>
<path style="fill:#454545;" d="M271.108,318.556l-5.036-15.998l159.475-50.755l-159.475-50.755l5.086-15.998l184.656,58.754
	c4.415,1.402,6.857,6.127,5.456,10.542c-0.823,2.594-2.862,4.633-5.456,5.456L271.108,318.556z"/>
<path d="M243.41,201.443h16.787v100.721H243.41V201.443z"/>
<path style="fill:#168DE2;" d="M251.803,360.918c-18.541,0-33.574-15.033-33.574-33.574s15.033-33.574,33.574-33.574
	s33.574,15.033,33.574,33.574S270.344,360.918,251.803,360.918z"/>
<path style="fill:#D95354;" d="M251.803,209.836c-18.541,0-33.574-15.033-33.574-33.574s15.033-33.574,33.574-33.574
	s33.574,15.033,33.574,33.574S270.344,209.836,251.803,209.836z"/>
<path style="fill:#FFCB5A;" d="M33.574,285.377C15.033,285.377,0,270.344,0,251.803s15.033-33.574,33.574-33.574
	s33.574,15.033,33.574,33.574S52.115,285.377,33.574,285.377z"/>
<path style="fill:#03AA6F;" d="M251.803,67.148c-18.541,0-33.574-15.033-33.574-33.574S233.262,0,251.803,0
	s33.574,15.033,33.574,33.574S270.344,67.148,251.803,67.148z"/>
<path style="fill:#FFCB5A;" d="M478.426,285.377c-18.541,0-33.574-15.033-33.574-33.574s15.033-33.574,33.574-33.574
	S512,233.262,512,251.803S496.967,285.377,478.426,285.377z"/>
<path style="fill:#03AA6F;" d="M251.803,512c-18.541,0-33.574-15.033-33.574-33.574s15.033-33.574,33.574-33.574
	s33.574,15.033,33.574,33.574S270.344,512,251.803,512z"/>
<g>
	<path style="fill:#168DE2;" d="M98.262,130.291c-18.541-0.008-33.565-15.041-33.565-33.582
		c0.008-18.541,15.041-33.574,33.582-33.565s33.565,15.041,33.565,33.582c0,8.905-3.542,17.442-9.837,23.737
		C115.72,126.783,107.176,130.317,98.262,130.291z"/>
	<path style="fill:#168DE2;" d="M406.889,130.291c-18.541,0-33.574-15.033-33.574-33.574s15.033-33.574,33.574-33.574
		s33.574,15.033,33.574,33.574c0,8.905-3.542,17.45-9.837,23.745C424.339,126.775,415.794,130.317,406.889,130.291z"/>
</g>
<path style="fill:#D95354;" d="M412.823,444.852c-18.541,0-33.574-15.033-33.574-33.574c0-8.905,3.534-17.442,9.829-23.737
	c13.295-12.666,34.187-12.666,47.482,0c13.111,13.111,13.102,34.371-0.008,47.482C430.256,441.319,421.72,444.852,412.823,444.852z"
	/>
<path style="fill:#03AA6F;" d="M92.328,444.852c-18.541,0-33.574-15.041-33.565-33.582c0-8.897,3.534-17.433,9.829-23.728
	c13.278-12.691,34.195-12.691,47.473,0c13.111,13.111,13.111,34.363,0,47.473C109.786,441.336,101.233,444.878,92.328,444.852z"/>
<path d="M251.803,360.918c-18.516,0-33.574-15.058-33.574-33.574c0-18.516,15.058-33.574,33.574-33.574s33.574,15.058,33.574,33.574
	C285.377,345.86,270.319,360.918,251.803,360.918z M251.803,310.557c-9.258,0-16.787,7.529-16.787,16.787
	s7.529,16.787,16.787,16.787s16.787-7.529,16.787-16.787S261.061,310.557,251.803,310.557z"/>
<path d="M251.803,209.836c-18.516,0-33.574-15.058-33.574-33.574s15.058-33.574,33.574-33.574s33.574,15.058,33.574,33.574
	S270.319,209.836,251.803,209.836z M251.803,159.475c-9.258,0-16.787,7.529-16.787,16.787c0,9.258,7.529,16.787,16.787,16.787
	s16.787-7.529,16.787-16.787C268.59,167.004,261.061,159.475,251.803,159.475z"/>
<path d="M33.574,285.377C15.058,285.377,0,270.319,0,251.803s15.058-33.574,33.574-33.574s33.574,15.058,33.574,33.574
	S52.09,285.377,33.574,285.377z M33.574,235.016c-9.258,0-16.787,7.529-16.787,16.787s7.529,16.787,16.787,16.787
	s16.787-7.529,16.787-16.787S42.832,235.016,33.574,235.016z"/>
<path d="M251.803,67.148c-18.516,0-33.574-15.058-33.574-33.574S233.287,0,251.803,0s33.574,15.058,33.574,33.574
	S270.319,67.148,251.803,67.148z M251.803,16.787c-9.258,0-16.787,7.529-16.787,16.787s7.529,16.787,16.787,16.787
	s16.787-7.529,16.787-16.787S261.061,16.787,251.803,16.787z"/>
<path d="M478.426,285.377c-18.516,0-33.574-15.058-33.574-33.574s15.058-33.574,33.574-33.574c18.516,0,33.574,15.058,33.574,33.574
	S496.942,285.377,478.426,285.377z M478.426,235.016c-9.258,0-16.787,7.529-16.787,16.787s7.529,16.787,16.787,16.787
	s16.787-7.529,16.787-16.787S487.684,235.016,478.426,235.016z"/>
<path d="M251.803,512c-18.516,0-33.574-15.058-33.574-33.574c0-18.516,15.058-33.574,33.574-33.574s33.574,15.058,33.574,33.574
	C285.377,496.942,270.319,512,251.803,512z M251.803,461.639c-9.258,0-16.787,7.529-16.787,16.787s7.529,16.787,16.787,16.787
	s16.787-7.529,16.787-16.787S261.061,461.639,251.803,461.639z"/>
<path d="M98.262,130.291c-18.516,0-33.574-15.058-33.574-33.574s15.058-33.574,33.574-33.574s33.574,15.058,33.574,33.574
	S116.778,130.291,98.262,130.291z M98.262,79.931c-9.258,0-16.787,7.529-16.787,16.787s7.529,16.787,16.787,16.787
	s16.787-7.529,16.787-16.787S107.52,79.931,98.262,79.931z"/>
<path d="M406.889,130.291c-18.516,0-33.574-15.058-33.574-33.574s15.058-33.574,33.574-33.574c18.516,0,33.574,15.058,33.574,33.574
	S425.405,130.291,406.889,130.291z M406.889,79.931c-9.258,0-16.787,7.529-16.787,16.787s7.529,16.787,16.787,16.787
	c9.258,0,16.787-7.529,16.787-16.787S416.138,79.931,406.889,79.931z"/>
<path d="M412.823,444.852c-18.516,0-33.574-15.058-33.574-33.574c0-18.516,15.058-33.574,33.574-33.574
	c18.516,0,33.574,15.058,33.574,33.574C446.397,429.795,431.339,444.852,412.823,444.852z M412.823,394.492
	c-9.258,0-16.787,7.529-16.787,16.787c0,9.258,7.529,16.787,16.787,16.787c9.258,0,16.787-7.529,16.787-16.787
	C429.61,402.021,422.073,394.492,412.823,394.492z"/>
<path d="M92.328,444.852c-18.516,0-33.574-15.058-33.574-33.574c0-18.516,15.058-33.574,33.574-33.574s33.574,15.058,33.574,33.574
	C125.902,429.795,110.844,444.852,92.328,444.852z M92.328,394.492c-9.258,0-16.787,7.529-16.787,16.787
	c0,9.258,7.529,16.787,16.787,16.787s16.787-7.529,16.787-16.787C109.115,402.021,101.586,394.492,92.328,394.492z"/>
<rect x="45.639" y="273.495" transform="matrix(-0.9434 0.3316 -0.3316 -0.9434 216.1732 633.5782)" width="16.787" height="123.474"/>
<rect x="110.567" y="365.112" transform="matrix(-0.8944 0.4472 -0.4472 -0.8944 500.9334 628.7553)" width="131.37" height="16.786"/>
<path d="M232.364,318.514L56.102,259.76c-3.433-1.133-5.741-4.339-5.741-7.957s2.308-6.824,5.741-7.965l176.262-58.754l5.313,15.922
	L85.294,251.803L237.669,302.6L232.364,318.514z"/>
<rect x="-1.339" y="163.676" transform="matrix(-0.4189 0.908 -0.908 -0.4189 239.6021 190.8064)" width="120.174" height="16.786"/>
<rect x="111.973" y="50.357" transform="matrix(-0.908 0.4189 -0.4189 -0.908 352.9057 40.0192)" width="120.174" height="16.786"/>
<rect x="323.156" y="-3.908" transform="matrix(-0.359 0.9333 -0.9333 -0.359 501.4849 -235.3224)" width="16.786" height="116.9"/>
<rect x="444.882" y="111.962" transform="matrix(-0.908 0.4191 -0.4191 -0.908 936.9314 138.3127)" width="16.788" height="120.184"/>
<rect x="391.586" y="326.862" transform="matrix(-0.38 0.925 -0.925 -0.38 937.3668 42.2088)" width="125.903" height="16.787"/>
<rect x="272.038" y="445.323" transform="matrix(-0.9226 0.3857 -0.3857 -0.9226 820.9999 742.7259)" width="127.922" height="16.787"/>
<rect x="159.962" y="390.521" transform="matrix(-0.39 0.9208 -0.9208 -0.39 651.8463 475.7113)" width="16.787" height="126.487"/>
<rect x="243.41" y="352.525" width="16.787" height="100.721"/>
<rect x="323.424" y="300.923" transform="matrix(-0.3636 0.9316 -0.9316 -0.3636 796.0092 193.7638)" width="16.788" height="135.728"/>
<rect x="269.58" y="138.469" transform="matrix(-0.8806 0.4738 -0.4738 -0.8806 693.0903 119.0959)" width="123.926" height="16.778"/>
<rect x="163.68" y="78.618" transform="matrix(-0.5241 0.8517 -0.8517 -0.5241 383.7691 70.9045)" width="16.788" height="128.122"/>
<rect x="243.41" y="58.754" width="16.787" height="92.328"/>
<path d="M271.133,318.556l-5.078-15.998l159.509-50.755l-159.517-50.755l5.078-15.998l184.656,58.754
	c3.492,1.108,5.859,4.339,5.859,7.999s-2.367,6.891-5.85,7.999L271.133,318.556z"/>
<rect x="243.41" y="201.443" width="16.787" height="100.721"/>
<g>
</g>
<g>
</g>
<g>
</g>
<g>
</g>
<g>
</g>
<g>
</g>
<g>
</g>
<g>
</g>
<g>
</g>
<g>
</g>
<g>
</g>
<g>
</g>
<g>
</g>
<g>
</g>
<g>
</g>
</svg>
