<svg height="512pt" viewBox="0 -46 512 512" width="512pt" xmlns="http://www.w3.org/2000/svg"><path d="m502 370v-40h-397v40c0 22.089844 17.910156 40 40 40h317c22.089844 0 40-17.910156 40-40zm0 0" fill="#6e7b7f"/><path d="m462 10h-310c-11.050781 0-20 8.949219-20 20v300h350v-300c0-11.050781-8.949219-20-20-20zm0 0" fill="#c4f0ff"/><path d="m316 330v20c0 11.050781-8.949219 20-20 20h-80c-11.050781 0-20-8.949219-20-20v-20zm0 0" fill="#feb756"/><path d="m216 100c5.519531 0 10-4.480469 10-10s-4.480469-10-10-10-10 4.480469-10 10 4.480469 10 10 10zm0 0"/><path d="m216 180c5.519531 0 10-4.480469 10-10s-4.480469-10-10-10-10 4.480469-10 10 4.480469 10 10 10zm0 0"/><path d="m216 260c5.519531 0 10-4.480469 10-10s-4.480469-10-10-10-10 4.480469-10 10 4.480469 10 10 10zm0 0"/><path d="m502 320h-10v-290c0-16.542969-13.457031-30-30-30h-412c-16.542969 0-30 13.457031-30 30v290h-10c-5.523438 0-10 4.476562-10 10v40c0 27.570312 22.429688 50 50 50h412c27.570312 0 50-22.429688 50-50v-40c0-5.523438-4.476562-10-10-10zm-462-290c0-5.515625 4.484375-10 10-10h412c5.515625 0 10 4.484375 10 10v290h-432zm166 310h100v10c0 5.515625-4.484375 10-10 10h-80c-5.515625 0-10-4.484375-10-10zm286 30c0 16.542969-13.457031 30-30 30h-412c-16.542969 0-30-13.457031-30-30v-30h166v10c0 16.542969 13.457031 30 30 30h80c16.542969 0 30-13.457031 30-30v-10h166zm0 0"/><path d="m145.929688 62.929688-32.929688 32.929687-12.929688-12.929687c-3.90625-3.90625-10.234374-3.90625-14.140624 0s-3.90625 10.234374 0 14.140624l20 20c1.953124 1.953126 4.511718 2.929688 7.070312 2.929688s5.117188-.976562 7.070312-2.929688l40-40c3.90625-3.902343 3.90625-10.234374 0-14.140624s-10.234374-3.90625-14.140624 0zm0 0"/><path d="m145.929688 142.929688-32.929688 32.929687-12.929688-12.929687c-3.90625-3.90625-10.234374-3.90625-14.140624 0s-3.90625 10.234374 0 14.140624l20 20c1.953124 1.953126 4.511718 2.929688 7.070312 2.929688s5.117188-.976562 7.070312-2.929688l40-40c3.90625-3.902343 3.90625-10.234374 0-14.140624s-10.234374-3.90625-14.140624 0zm0 0"/><path d="m145.929688 222.929688-32.929688 32.929687-12.929688-12.929687c-3.90625-3.90625-10.234374-3.90625-14.140624 0s-3.90625 10.234374 0 14.140624l20 20c1.953124 1.953126 4.511718 2.929688 7.070312 2.929688s5.117188-.976562 7.070312-2.929688l40-40c3.90625-3.902343 3.90625-10.234374 0-14.140624s-10.234374-3.90625-14.140624 0zm0 0"/><path d="m256 100h166c5.523438 0 10-4.476562 10-10s-4.476562-10-10-10h-166c-5.523438 0-10 4.476562-10 10s4.476562 10 10 10zm0 0"/><path d="m256 180h166c5.523438 0 10-4.476562 10-10s-4.476562-10-10-10h-166c-5.523438 0-10 4.476562-10 10s4.476562 10 10 10zm0 0"/><path d="m256 260h166c5.523438 0 10-4.476562 10-10s-4.476562-10-10-10h-166c-5.523438 0-10 4.476562-10 10s4.476562 10 10 10zm0 0"/></svg>