<svg height="512" viewBox="0 0 58 58" width="512" xmlns="http://www.w3.org/2000/svg"><g id="Page-1" fill="none" fill-rule="evenodd"><g id="058---Viral-Marketing" fill-rule="nonzero"><path id="Shape" d="m20 20c-.2651948-.0000566-.5195073-.1054506-.707-.293l-8-8c-.3789722-.3923789-.3735524-1.0160848.0121814-1.4018186.3857338-.38573377 1.0094397-.39115361 1.4018186-.0121814l8 8c.2859079.2859943.3714219.7160366.216678 1.0896546-.1547439.3736179-.5192821.6172591-.923678.6173454z" fill="#3d324c"/><path id="Shape" d="m11 47c-.4043959-.0000863-.7689341-.2437275-.923678-.6173454-.15474391-.373618-.0692299-.8036603.216678-1.0896546l8-8c.3923789-.3789722 1.0160848-.3735524 1.4018186.0121814s.3911536 1.0094397.0121814 1.4018186l-8 8c-.1874927.1875494-.4418052.2929434-.707.293z" fill="#3d324c"/><path id="Shape" d="m46 48c-.2651948-.0000566-.5195073-.1054506-.707-.293l-4-4c-.3789722-.3923789-.3735524-1.0160848.0121814-1.4018186s1.0094397-.3911536 1.4018186-.0121814l4 4c.2859079.2859943.3714219.7160366.216678 1.0896546-.1547439.3736179-.5192821.6172591-.923678.6173454z" fill="#3d324c"/><path id="Shape" d="m43 17c-.4043959-.0000863-.7689341-.2437275-.923678-.6173454-.1547439-.373618-.0692299-.8036603.216678-1.0896546l4-4c.3923789-.3789722 1.0160848-.3735524 1.4018186.0121814s.3911536 1.0094397.0121814 1.4018186l-4 4c-.1874927.1875494-.4418052.2929434-.707.293z" fill="#3d324c"/><path id="Shape" d="m29 19c-.5522847 0-1-.4477153-1-1v-6c0-.5522847.4477153-1 1-1s1 .4477153 1 1v6c0 .5522847-.4477153 1-1 1z" fill="#3d324c"/><path id="Shape" d="m29 47c-.5522847 0-1-.4477153-1-1v-3c0-.5522847.4477153-1 1-1s1 .4477153 1 1v3c0 .5522847-.4477153 1-1 1z" fill="#3d324c"/><path id="Shape" d="m37 2v6c-.0032948 1.10320187-.8967981 1.9967052-2 2h-2.59l-2.7 2.71c-.3930079.3899779-1.0269921.3899779-1.42 0l-2.7-2.71h-2.59c-1.1032019-.0032948-1.9967052-.89679813-2-2v-6c.0032948-1.10320187.8967981-1.9967052 2-2h12c1.1032019.0032948 1.9967052.89679813 2 2z" fill="#ff5364"/><path id="Shape" d="m2 21h6c1.10320187.0032948 1.9967052.8967981 2 2v2.59l2.71 2.7c.3899779.3930079.3899779 1.0269921 0 1.42l-2.71 2.7v2.59c-.0032948 1.1032019-.89679813 1.9967052-2 2h-6c-1.10320187-.0032948-1.9967052-.8967981-2-2v-12c.0032948-1.1032019.89679813-1.9967052 2-2z" fill="#f0c419"/><path id="Shape" d="m21 56v-6c.0032948-1.1032019.8967981-1.9967052 2-2h2.59l2.7-2.71c.3930079-.3899779 1.0269921-.3899779 1.42 0l2.7 2.71h2.59c1.1032019.0032948 1.9967052.8967981 2 2v6c-.0032948 1.1032019-.8967981 1.9967052-2 2h-12c-1.1032019-.0032948-1.9967052-.8967981-2-2z" fill="#ff5364"/><path id="Shape" d="m56 37h-6c-1.1032019-.0032948-1.9967052-.8967981-2-2v-2.59l-2.71-2.7c-.3899779-.3930079-.3899779-1.0269921 0-1.42l2.71-2.7v-2.59c.0032948-1.1032019.8967981-1.9967052 2-2h6c1.1032019.0032948 1.9967052.8967981 2 2v12c-.0032948 1.1032019-.8967981 1.9967052-2 2z" fill="#f0c419"/><path id="Shape" d="m30.1 40c-.2624749.0000866-.5229851-.0452489-.77-.134l-4.813-1.752c-1.1760375-.4266706-1.7953663-1.7150877-1.394-2.9l1.332-3.417 1.863.727-1.318 3.37c-.0296435.1465246.0569532.2915741.2.335l4.814 1.751c.1643215.0543237.3423894-.0296541.405-.191l1.221-3.294 1.875.7-1.228 3.305c-.3505154.9026856-1.2186515 1.498115-2.187 1.5z" fill="#f29c1f"/><g fill="#ecf0f1"><circle id="Oval" cx="25" cy="5" r="1"/><circle id="Oval" cx="29" cy="5" r="1"/><circle id="Oval" cx="33" cy="5" r="1"/><circle id="Oval" cx="5" cy="33" r="1"/><circle id="Oval" cx="5" cy="29" r="1"/><circle id="Oval" cx="5" cy="25" r="1"/><circle id="Oval" cx="33" cy="53" r="1"/><circle id="Oval" cx="29" cy="53" r="1"/><circle id="Oval" cx="25" cy="53" r="1"/><circle id="Oval" cx="53" cy="25" r="1"/><circle id="Oval" cx="53" cy="29" r="1"/><circle id="Oval" cx="53" cy="33" r="1"/></g><path id="Shape" d="m37 21-16 6-1 3 1 2.025 16 6 1-8.025z" fill="#f0c419"/><path id="Shape" d="m26.333 30c-.4843297.0012981-.8999699-.3446733-.9865664-.8212004-.0865966-.476527.1807461-.9466131.6345664-1.1157996l6.667-2.5c.5174908-.1932997 1.0937003.0695092 1.287.587s-.0695092 1.0937003-.587 1.287l-6.667 2.5c-.1115422.040752-.2292503.0620613-.348.063z" fill="#f3d55b"/><circle id="Oval" cx="10" cy="9" fill="#955ba5" r="4"/><circle id="Oval" cx="9" cy="48" fill="#955ba5" r="4"/><circle id="Oval" cx="48" cy="49" fill="#955ba5" r="4"/><circle id="Oval" cx="49" cy="10" fill="#955ba5" r="4"/><rect id="Rectangle-path" fill="#f29c1f" height="9.025" rx="2" width="4" x="17" y="25"/><rect id="Rectangle-path" fill="#f3d55b" height="21.025" rx="2" width="4" x="37" y="19"/></g></g></svg>